<mxfile>
    <diagram id="pO0IaUkE1FO3uJKI9kuD" name="Page-1">
        <mxGraphModel dx="1331" dy="648" grid="0" gridSize="10" guides="1" tooltips="1" connect="1" arrows="1" fold="1" page="1" pageScale="1" pageWidth="850" pageHeight="1100" math="0" shadow="0">
            <root>
                <mxCell id="0"/>
                <mxCell id="1" parent="0"/>
                <mxCell id="45" value="&lt;font color=&quot;#9999ff&quot;&gt;&amp;nbsp; &amp;nbsp; &amp;nbsp; &amp;nbsp; &amp;nbsp; &amp;nbsp; &amp;nbsp; &amp;nbsp; &amp;nbsp; &amp;nbsp; &amp;nbsp; &lt;br&gt;&amp;nbsp; &amp;nbsp; &amp;nbsp; &amp;nbsp; &amp;nbsp; &amp;nbsp; &amp;nbsp; &amp;nbsp; &amp;nbsp; &amp;nbsp; &amp;nbsp; &amp;nbsp;CREATE/READ &lt;br&gt;&amp;nbsp; &amp;nbsp; &amp;nbsp; &amp;nbsp; &amp;nbsp; &amp;nbsp; &amp;nbsp; &amp;nbsp; &amp;nbsp; &amp;nbsp; &amp;nbsp; pour une date donnée&lt;/font&gt;" style="text;html=1;align=center;verticalAlign=middle;resizable=0;points=[];autosize=1;" parent="1" vertex="1">
                    <mxGeometry x="280" y="225" width="210" height="50" as="geometry"/>
                </mxCell>
                <mxCell id="47" value="&lt;font color=&quot;#9999ff&quot;&gt;READ-donne moi le produit dont &lt;br&gt;lecode barre =&lt;/font&gt;" style="text;html=1;align=center;verticalAlign=middle;resizable=0;points=[];autosize=1;" parent="1" vertex="1">
                    <mxGeometry x="575" y="402" width="190" height="30" as="geometry"/>
                </mxCell>
                <mxCell id="63" value="&lt;font style=&quot;font-size: 24px&quot; color=&quot;#9999ff&quot;&gt;&lt;b&gt;SUGAR METER&lt;/b&gt;&lt;/font&gt;" style="text;html=1;align=center;verticalAlign=middle;resizable=0;points=[];autosize=1;" parent="1" vertex="1">
                    <mxGeometry x="330" y="20" width="190" height="20" as="geometry"/>
                </mxCell>
                <mxCell id="2" value="User" style="swimlane;childLayout=stackLayout;horizontal=1;startSize=30;horizontalStack=0;rounded=1;fontSize=15;fontStyle=1;strokeWidth=2;resizeParent=0;resizeLast=1;shadow=0;dashed=0;align=center;fontColor=#66FFFF;" parent="1" vertex="1">
                    <mxGeometry x="80" y="280" width="200" height="120" as="geometry"/>
                </mxCell>
                <mxCell id="3" value="id, int, unique&#10;nickname, string, 80&#10;email, string, 100, unique&#10;password, string, 255&#10;&#10;" style="align=left;strokeColor=none;fillColor=none;spacingLeft=4;fontSize=14;verticalAlign=top;resizable=0;rotatable=0;part=1;fontFamily=Comic Sans MS;" parent="2" vertex="1">
                    <mxGeometry y="30" width="200" height="90" as="geometry"/>
                </mxCell>
                <mxCell id="4" value="Product" style="swimlane;childLayout=stackLayout;horizontal=1;startSize=30;horizontalStack=0;rounded=1;fontSize=15;fontStyle=1;strokeWidth=2;resizeParent=0;resizeLast=1;shadow=0;dashed=0;align=center;fontColor=#66FFFF;" parent="1" vertex="1">
                    <mxGeometry x="560" y="280" width="200" height="120" as="geometry"/>
                </mxCell>
                <mxCell id="5" value="code, string, 13, unique&#10;name, string, 50&#10;picture, string, 255&#10;sugar_thousand, int, 0-1000&#10;" style="align=left;strokeColor=none;fillColor=none;spacingLeft=4;fontSize=14;verticalAlign=top;resizable=0;rotatable=0;part=1;fontFamily=Comic Sans MS;" parent="4" vertex="1">
                    <mxGeometry y="30" width="200" height="90" as="geometry"/>
                </mxCell>
                <mxCell id="17" value="&amp;nbsp; &amp;nbsp; &amp;nbsp; &lt;br&gt;&amp;nbsp; &amp;nbsp;&lt;br&gt;&amp;nbsp; &amp;nbsp; &amp;nbsp; &amp;nbsp; &amp;nbsp; &amp;nbsp; &amp;nbsp; &amp;nbsp; &amp;nbsp; &amp;nbsp; &amp;nbsp; &amp;nbsp; &amp;nbsp; &amp;nbsp; &amp;nbsp;&lt;font color=&quot;#66ff66&quot;&gt;ManyToMany&lt;/font&gt;&amp;nbsp;&lt;br&gt;&amp;nbsp; &amp;nbsp; &amp;nbsp; &amp;nbsp; &amp;nbsp; &amp;nbsp; &amp;nbsp; &amp;nbsp; &amp;nbsp; &amp;nbsp; &amp;nbsp; &amp;nbsp; &amp;nbsp; &amp;nbsp;(garde manger)" style="text;html=1;align=center;verticalAlign=middle;resizable=0;points=[];autosize=1;" parent="1" vertex="1">
                    <mxGeometry x="280" y="285" width="190" height="60" as="geometry"/>
                </mxCell>
                <mxCell id="18" value="Consumption" style="swimlane;childLayout=stackLayout;horizontal=1;startSize=30;horizontalStack=0;rounded=1;fontSize=15;fontStyle=1;strokeWidth=2;resizeParent=0;resizeLast=1;shadow=0;dashed=0;align=center;fontColor=#66FFFF;" parent="1" vertex="1">
                    <mxGeometry x="320" y="120" width="200" height="120" as="geometry"/>
                </mxCell>
                <mxCell id="19" value="product_quantity, int&#10;sugar_thousand, int&#10;create_at, datetime&#10;&#10;" style="align=left;strokeColor=none;fillColor=none;spacingLeft=4;fontSize=14;verticalAlign=top;resizable=0;rotatable=0;part=1;fontFamily=Comic Sans MS;" parent="18" vertex="1">
                    <mxGeometry y="30" width="200" height="90" as="geometry"/>
                </mxCell>
                <mxCell id="31" value="" style="edgeStyle=entityRelationEdgeStyle;fontSize=12;html=1;endArrow=ERoneToMany;entryX=0.5;entryY=0;entryDx=0;entryDy=0;exitX=1;exitY=0;exitDx=0;exitDy=0;" parent="1" source="19" target="4" edge="1">
                    <mxGeometry x="35" y="140" width="100" height="100" as="geometry">
                        <mxPoint x="455" y="380" as="sourcePoint"/>
                        <mxPoint x="555" y="280" as="targetPoint"/>
                    </mxGeometry>
                </mxCell>
                <mxCell id="32" value="OneToMany" style="edgeLabel;html=1;align=center;verticalAlign=middle;resizable=0;points=[];rotation=60;fontColor=#66FF66;" parent="31" vertex="1" connectable="0">
                    <mxGeometry x="-0.0524" y="3" relative="1" as="geometry">
                        <mxPoint x="19.62" y="11.330000000000004" as="offset"/>
                    </mxGeometry>
                </mxCell>
                <mxCell id="33" value="" style="edgeStyle=entityRelationEdgeStyle;fontSize=12;html=1;endArrow=ERmany;startArrow=ERmany;exitX=1;exitY=0;exitDx=0;exitDy=0;entryX=0;entryY=0;entryDx=0;entryDy=0;" parent="1" source="3" target="5" edge="1">
                    <mxGeometry x="35" y="140" width="100" height="100" as="geometry">
                        <mxPoint x="285" y="270" as="sourcePoint"/>
                        <mxPoint x="385" y="170" as="targetPoint"/>
                    </mxGeometry>
                </mxCell>
                <mxCell id="34" value="" style="edgeStyle=entityRelationEdgeStyle;fontSize=12;html=1;endArrow=ERoneToMany;entryX=0.5;entryY=0;entryDx=0;entryDy=0;exitX=0;exitY=0;exitDx=0;exitDy=0;" parent="1" source="19" target="2" edge="1">
                    <mxGeometry x="35" y="140" width="100" height="100" as="geometry">
                        <mxPoint x="155" y="430" as="sourcePoint"/>
                        <mxPoint x="255" y="330" as="targetPoint"/>
                    </mxGeometry>
                </mxCell>
                <mxCell id="35" value="ManyToOne" style="edgeLabel;html=1;align=center;verticalAlign=middle;resizable=0;points=[];rotation=-60;fontColor=#66FF66;" parent="34" vertex="1" connectable="0">
                    <mxGeometry x="-0.1449" relative="1" as="geometry">
                        <mxPoint x="-20.11" y="8.25" as="offset"/>
                    </mxGeometry>
                </mxCell>
                <mxCell id="49" value="&lt;font color=&quot;#9999ff&quot;&gt;CREATE-connected&lt;/font&gt;" style="text;html=1;align=center;verticalAlign=middle;resizable=0;points=[];autosize=1;" parent="1" vertex="1">
                    <mxGeometry x="115" y="400" width="120" height="20" as="geometry"/>
                </mxCell>
                <mxCell id="70" value="&lt;font face=&quot;Comic Sans MS&quot;&gt;&lt;br&gt;&lt;span style=&quot;font-style: normal ; letter-spacing: normal ; text-align: center ; text-indent: 0px ; text-transform: none ; word-spacing: 0px ; background-color: rgb(42 , 42 , 42) ; display: inline ; float: none&quot;&gt;&lt;font color=&quot;#66ffff&quot; style=&quot;font-size: 14px&quot;&gt;&lt;b&gt;USER&amp;nbsp;&lt;/b&gt;&lt;/font&gt;&lt;/span&gt;&lt;br style=&quot;color: rgb(240 , 240 , 240) ; font-size: 13px ; font-style: normal ; font-weight: 400 ; letter-spacing: normal ; text-align: center ; text-indent: 0px ; text-transform: none ; word-spacing: 0px ; background-color: rgb(42 , 42 , 42)&quot;&gt;&lt;span style=&quot;color: rgb(240 , 240 , 240) ; font-style: normal ; font-weight: 400 ; letter-spacing: normal ; text-align: center ; text-indent: 0px ; text-transform: none ; word-spacing: 0px ; background-color: rgb(42 , 42 , 42) ; font-size: 12px&quot;&gt;Un user à plusieurs&amp;nbsp;&lt;/span&gt;&lt;span style=&quot;color: rgb(240 , 240 , 240) ; font-style: normal ; font-weight: 400 ; letter-spacing: normal ; text-align: center ; text-indent: 0px ; text-transform: none ; word-spacing: 0px ; background-color: rgb(42 , 42 , 42) ; font-size: 12px&quot;&gt;conso&lt;/span&gt;&lt;br style=&quot;color: rgb(240 , 240 , 240) ; font-style: normal ; font-weight: 400 ; letter-spacing: normal ; text-align: center ; text-indent: 0px ; text-transform: none ; word-spacing: 0px ; background-color: rgb(42 , 42 , 42) ; font-size: 12px&quot;&gt;&lt;span style=&quot;color: rgb(240 , 240 , 240) ; font-style: normal ; font-weight: 400 ; letter-spacing: normal ; text-align: center ; text-indent: 0px ; text-transform: none ; word-spacing: 0px ; background-color: rgb(42 , 42 , 42) ; font-size: 12px&quot;&gt;Une conso&amp;nbsp;&lt;/span&gt;&lt;span style=&quot;color: rgb(240 , 240 , 240) ; font-style: normal ; font-weight: 400 ; letter-spacing: normal ; text-align: center ; text-indent: 0px ; text-transform: none ; word-spacing: 0px ; background-color: rgb(42 , 42 , 42) ; font-size: 12px&quot;&gt;à un seul user&lt;/span&gt;&lt;br style=&quot;color: rgb(240 , 240 , 240) ; font-style: normal ; font-weight: 400 ; letter-spacing: normal ; text-align: center ; text-indent: 0px ; text-transform: none ; word-spacing: 0px ; background-color: rgb(42 , 42 , 42) ; font-size: 12px&quot;&gt;&lt;span style=&quot;color: rgb(240 , 240 , 240) ; font-style: normal ; font-weight: 400 ; letter-spacing: normal ; text-align: center ; text-indent: 0px ; text-transform: none ; word-spacing: 0px ; background-color: rgb(42 , 42 , 42) ; font-size: 12px&quot;&gt;&amp;nbsp;&lt;/span&gt;&lt;/font&gt;" style="shape=ext;double=1;rounded=0;whiteSpace=wrap;html=1;fontSize=13;" parent="1" vertex="1">
                    <mxGeometry x="50" y="480" width="210" height="80" as="geometry"/>
                </mxCell>
                <mxCell id="71" value="&lt;font face=&quot;Comic Sans MS&quot;&gt;&lt;font color=&quot;#66ffff&quot; style=&quot;font-size: 14px&quot;&gt;&lt;b&gt;CONSUMPTION&lt;/b&gt;&lt;/font&gt;&lt;br&gt;&lt;span style=&quot;font-size: 12px&quot;&gt;Une consommation n'a qu'un seul&amp;nbsp;&lt;/span&gt;&lt;span style=&quot;font-size: 12px&quot;&gt;produit&lt;/span&gt;&lt;br style=&quot;font-size: 12px&quot;&gt;&lt;span style=&quot;font-size: 12px&quot;&gt;Un produit peut avoir&amp;nbsp;&lt;/span&gt;&lt;span style=&quot;font-size: 12px&quot;&gt;plusieurs consommations&lt;/span&gt;&lt;/font&gt;" style="shape=ext;double=1;rounded=0;whiteSpace=wrap;html=1;fontSize=13;" parent="1" vertex="1">
                    <mxGeometry x="290.67" y="480" width="280" height="80" as="geometry"/>
                </mxCell>
                <mxCell id="73" value="&lt;font face=&quot;Comic Sans MS&quot;&gt;&lt;font color=&quot;#66ffff&quot; style=&quot;font-size: 14px&quot;&gt;&lt;b&gt;PRODUCT&amp;nbsp;&lt;/b&gt;&lt;/font&gt;&lt;br&gt;&lt;span style=&quot;font-size: 12px&quot;&gt;Un user peut avoir plusieurs produits&lt;/span&gt;&lt;br style=&quot;font-size: 12px&quot;&gt;&lt;span style=&quot;font-size: 12px&quot;&gt;Un produit peut avoir plusieurs users&lt;/span&gt;&lt;/font&gt;" style="shape=ext;double=1;rounded=0;whiteSpace=wrap;html=1;fontSize=13;" parent="1" vertex="1">
                    <mxGeometry x="600" y="480" width="230" height="80" as="geometry"/>
                </mxCell>
                <mxCell id="74" value="&lt;font face=&quot;Comic Sans MS&quot;&gt;&lt;b&gt;&lt;font style=&quot;font-size: 14px&quot; color=&quot;#66ffff&quot;&gt;CONVENTIONS &lt;/font&gt;:&lt;/b&gt;&lt;br&gt;product quanttity : grammes ou mililitres&lt;br&gt;user : identifiant unique pour pouvoir laisser l'utilisateur libre maitre de son nickname&lt;/font&gt;" style="shape=ext;double=1;rounded=0;whiteSpace=wrap;html=1;fontSize=13;align=left;" parent="1" vertex="1">
                    <mxGeometry x="60" y="590" width="750" height="80" as="geometry"/>
                </mxCell>
                <mxCell id="75" value="&lt;font face=&quot;Comic Sans MS&quot;&gt;Récupération de l'API une seule fois en js et stockage du product dans la BDD&lt;br&gt;Penser au chainage de symfony pour créer le product s'il n'existe pas&lt;/font&gt;" style="shape=ext;double=1;rounded=0;whiteSpace=wrap;html=1;fontSize=13;" parent="1" vertex="1">
                    <mxGeometry x="60" y="690" width="750" height="80" as="geometry"/>
                </mxCell>
            </root>
        </mxGraphModel>
    </diagram>
</mxfile>